<?xml version="1.0" encoding="UTF-8" standalone="no"?>
<svg
   xmlns:dc="http://purl.org/dc/elements/1.1/"
   xmlns:cc="http://creativecommons.org/ns#"
   xmlns:rdf="http://www.w3.org/1999/02/22-rdf-syntax-ns#"
   xmlns:svg="http://www.w3.org/2000/svg"
   xmlns="http://www.w3.org/2000/svg"
   xmlns:sodipodi="http://sodipodi.sourceforge.net/DTD/sodipodi-0.dtd"
   xmlns:inkscape="http://www.inkscape.org/namespaces/inkscape"
   version="1.1"
   id="svg2"
   xml:space="preserve"
   width="535.9314"
   height="574.5329"
   viewBox="0 0 535.9314 574.5329"
   sodipodi:docname="arm-slash.svg"
   inkscape:version="1.0.1 (3bc2e813f5, 2020-09-07)"><metadata
     id="metadata8"><rdf:RDF><cc:Work
         rdf:about=""><dc:format>image/svg+xml</dc:format><dc:type
           rdf:resource="http://purl.org/dc/dcmitype/StillImage" /><dc:title></dc:title></cc:Work></rdf:RDF></metadata><defs
     id="defs6"><marker
       style="overflow:visible"
       id="Arrow2Lend"
       refX="0"
       refY="0"
       orient="auto"
       inkscape:stockid="Arrow2Lend"
       inkscape:isstock="true"><path
         transform="matrix(-1.1,0,0,-1.1,-1.1,0)"
         d="M 8.7185878,4.0337352 -2.2072895,0.01601326 8.7185884,-4.0017078 c -1.7454984,2.3720609 -1.7354408,5.6174519 -6e-7,8.035443 z"
         style="fill:#231f20;fill-opacity:1;fill-rule:evenodd;stroke:#000000;stroke-width:0.625;stroke-linejoin:round;stroke-opacity:1"
         id="path936" /></marker><marker
       style="overflow:visible"
       id="TriangleInL"
       refX="0"
       refY="0"
       orient="auto"
       inkscape:stockid="TriangleInL"
       inkscape:isstock="true"><path
         transform="scale(-0.8)"
         style="fill:#000000;fill-opacity:1;fill-rule:evenodd;stroke:#000000;stroke-width:1pt;stroke-opacity:1"
         d="M 5.77,0 -2.88,5 V -5 Z"
         id="path1048" /></marker></defs><sodipodi:namedview
     pagecolor="#ffffff"
     bordercolor="#666666"
     borderopacity="1"
     objecttolerance="10"
     gridtolerance="10"
     guidetolerance="10"
     inkscape:pageopacity="0"
     inkscape:pageshadow="2"
     inkscape:window-width="3840"
     inkscape:window-height="2097"
     id="namedview4"
     inkscape:document-rotation="0"
     showgrid="false"
     inkscape:zoom="0.81926356"
     inkscape:cx="304.10552"
     inkscape:cy="509.84015"
     inkscape:window-x="-8"
     inkscape:window-y="-8"
     inkscape:window-maximized="1"
     inkscape:current-layer="g10"
     lock-margins="true"
     fit-margin-top="3"
     fit-margin-left="3"
     fit-margin-right="3"
     fit-margin-bottom="3" /><g
     id="g10"
     inkscape:groupmode="layer"
     inkscape:label="ink_ext_XXXXXX"
     transform="matrix(1.3333333,0,0,-1.3333333,-112.82046,1187.5618)"><path
       d="m 126.56414,841.91836 c 0.0613,0.84352 -0.7897,1.31725 -1.21486,1.89681 -0.42357,0.57684 -0.82038,1.29512 -1.21551,1.89742 -0.86085,1.31013 -1.90085,2.37108 -2.84279,3.63321 -1.67491,2.24373 -2.54898,5.01731 -3.73074,7.36536 -1.1669,2.31981 -2.42141,4.74843 -3.8777,7.49817 -1.15166,2.17397 -3.47919,5.04242 -1.49849,7.47928 1.20814,1.48531 3.62679,1.89296 4.98148,1.09217 1.62454,-0.96297 2.44275,-2.93616 3.31032,-4.58933 0.8135,-1.55036 1.42434,-3.36233 2.19458,-4.64586 0.83064,-1.38529 2.04379,-2.66333 2.87103,-4.19106 0.73995,-1.36935 1.19579,-2.94565 2.03207,-4.2336 1.08059,-1.66362 2.55112,-3.20118 3.60424,-4.85484 0.89392,-1.4047 1.48037,-4.15963 3.54683,-3.73691 0.55922,0.46376 -0.31593,1.17628 -0.49585,1.51405 -3.3213,6.22996 -5.27054,11.81727 -9.18786,18.42131 -1.28503,2.16509 -2.99326,4.92683 -1.60356,6.77365 1.13745,1.51138 3.75523,1.74592 5.27523,0.8268 2.19775,-1.32797 3.20814,-4.48485 4.24701,-6.5003 2.28058,-4.42982 4.55067,-8.37307 6.81799,-13.08468 1.47895,-3.07214 2.47667,-7.97627 6.06822,-6.5474 0.61563,2.08797 -0.018,4.19549 -0.17845,6.2866 -0.3207,4.17516 -1.31149,7.53267 -2.29755,12.19449 -0.3876,1.83538 -1.12719,4.76372 0.52697,6.1829 1.08363,0.92931 2.74183,0.50927 3.64191,-0.095 1.75108,-1.1765 1.80526,-2.67828 2.13727,-3.52946 1.9649,-5.04622 2.74762,-8.95019 3.65931,-14.22404 0.44678,-2.58562 0.41196,-5.13909 1.05842,-7.08166 0.78431,-2.35689 2.48422,-4.36715 3.55557,-6.67479 2.03847,-4.38759 4.28109,-8.86396 5.99613,-13.4068 0.82174,-2.17506 0.99046,-4.49731 1.73563,-6.62749 0.70971,-2.03071 2.01582,-3.98168 2.69049,-6.16001 0.70686,-2.2815 1.52581,-4.14948 2.69044,-6.1586 2.37949,-4.10409 5.91968,-7.84987 9.56725,-12.10637 10.23358,-11.94159 21.40377,-23.85339 29.6727,-36.13041 5.55084,-8.24167 9.17316,-15.54817 16.19661,-24.22146 3.40101,-4.19815 7.60611,-8.28054 9.14202,-11.98768 0.57192,-1.3779 0.21609,-3.03212 0.77088,-4.15879 0.69229,-1.40715 2.25999,-2.65378 3.42828,-4.16352 2.83332,-3.65699 5.46438,-8.36571 7.89355,-12.19121 7.09409,-11.1697 14.98581,-21.48192 22.08491,-32.73704 2.56449,-4.065 7.43196,-12.63938 9.35712,-16.92864 0.60039,-1.34029 0.85948,-3.36551 1.76799,-4.52735 1.77249,-2.26853 2.66487,-3.26622 3.63177,-5.41204 0.75714,-1.68139 1.13277,-3.33751 1.95804,-5.4969 1.24746,-3.26725 3.18688,-6.39962 4.82701,-9.68879 v 0 c 0,0 -8.63125,-1.52392 -51.00574,1.61082 -0.57231,2.50496 -1.5407,4.98774 -1.33746,7.06826 0.14703,1.5127 1.16412,2.81885 1.18323,4.2571 0.0223,1.7117 -3.5516,7.32345 -3.0854,9.13272 -7.89004,12.96028 -15.81751,25.08107 -21.66382,38.21505 -0.76074,1.71023 -1.42239,3.25416 -1.92906,4.93834 -0.46255,1.54058 -0.58498,3.14579 -0.94527,4.8487 -1.45165,6.86283 -6.33909,12.04414 -11.59536,18.99947 -2.31231,3.05822 -4.65624,6.12478 -6.91449,9.44275 -8.41027,12.35619 -15.50108,25.23588 -23.0592,38.14292 -5.37246,9.17753 -11.90178,18.77362 -19.77253,28.51839 -2.85397,3.5314 -5.15304,7.5305 -8.75071,9.76888 -2.44177,1.52023 -5.20779,2.77268 -7.90768,4.21609 -2.54418,1.36068 -5.20839,2.3514 -7.87945,3.65822 -2.62881,1.28489 -5.27564,3.25988 -7.95082,5.05295 -2.61868,1.75414 -5.64558,3.04288 -7.93742,4.77394 -1.92514,1.45365 -3.46992,3.21193 -5.38232,4.06376 -1.61536,0.72101 -4.88173,0.79613 -5.57639,2.37658 -0.68248,1.54925 0.89994,3.12761 2.46011,3.90126 2.72804,1.35326 6.03874,0.47392 8.70821,-0.67791 1.61207,-0.69491 2.71603,-1.92835 4.34201,-2.85837 1.20884,-0.68929 3.11775,-1.20774 4.71126,-1.85907 1.63395,-0.66771 3.32783,-1.49869 4.55019,-1.44806 0.59194,1.64712 -0.81125,3.1117 -1.62183,4.39526 -2.75313,4.36347 -5.76077,8.6389 -9.33072,12.95735 -2.29294,2.7739 -3.7402,5.72165 -5.47591,8.67669 -2.03634,3.46377 -6.71349,9.26109 -4.1331,12.52132 0.94333,1.19216 2.76931,1.60168 3.99772,1.18186 3.45626,-1.18073 4.22241,-5.79212 5.72661,-8.104 0.82003,-1.25976 2.21367,-2.67664 3.28279,-4.03072 2.07981,-2.63386 4.91516,-5.1565 6.56408,-8.06145 0.77424,-1.36261 1.00908,-3.50877 2.93238,-2.6495"
       style="fill:none;fill-opacity:1;fill-rule:evenodd;stroke:#000000;stroke-width:0.75;stroke-miterlimit:4;stroke-dasharray:3, 1.5;stroke-dashoffset:0;stroke-opacity:1"
       id="path16-9-9-0"
       sodipodi:nodetypes="ccccccsccccccccccccccccccccsccccccccccccccccccccccccccccccccccccccccccccccccccc" /><path
       d="m 356.32429,704.27712 c -4.58667,-12.41172 -8.00788,-24.93838 -12.65946,-37.40585 -1.6797,-4.50325 -5.55104,-13.57105 -7.79654,-17.70163 -0.70239,-1.28976 -2.15643,-2.72311 -2.53013,-4.14985 -0.73056,-2.78462 -0.98345,-4.09908 -2.10454,-6.16852 -0.87874,-1.62116 -1.96855,-2.92353 -3.18624,-4.88853 -1.84317,-2.97218 -3.15972,-6.41309 -4.78236,-9.71089 -4.52967,-9.21126 -9.9948,-20.04996 -12.54054,-31.26929 -0.87534,-3.86331 -1.574,-8.06057 -2.79689,-12.05926 -1.27132,-4.15719 -2.43897,-7.99997 -2.61716,-12.27304 -0.2767,-6.64014 -0.006,-13.40952 -0.91497,-20.3488 -0.27129,-2.07156 -0.88686,-4.08412 -1.11993,-6.25021 -0.69445,-6.45352 -0.26698,-13.9827 -1.19485,-21.31577 -0.20421,-1.60756 -0.80668,-3.10539 -0.98772,-4.67575 -0.21683,-1.87644 0.0705,-4.06014 0.0783,-6.15414 0.0209,-5.87034 0.17382,-12.16321 0.25059,-18.26402 0.10688,-8.37131 -0.56639,-17.0464 -0.52445,-25.13929 l -131.59248,-3.82204 c 0.38878,2.24936 2.16646,4.06998 2.6783,5.92165 0.46853,1.69575 0.24977,3.85161 0.87339,5.67684 0.22765,0.66628 0.52974,1.57017 0.9864,2.29751 0.51354,0.8179 1.21407,1.13538 1.3463,1.8699 0.14429,0.79773 -0.31556,1.6522 -0.39212,2.41227 -0.35687,3.53124 1.0197,5.31833 3.00721,7.4806 -0.0812,1.50708 -0.1253,3.01205 0.19946,4.74191 0.33934,1.80495 1.69757,3.18613 1.74299,4.21695 0.0341,0.79993 -0.45956,1.06318 -0.83685,1.85453 -1.09616,2.30882 -0.63542,5.3971 0.66146,7.87728 0.34773,0.66322 0.95382,1.33085 1.16747,2.08262 0.71135,2.51027 0.30832,5.88483 0.35021,8.8939 0.11659,8.44286 0.30998,17.20641 -1.77305,23.74665 -3.82514,-13.1962 -8.97138,-24.53234 -10.5273,-37.98231 -0.86882,-7.51667 -2.30418,-13.79458 -4.63992,-19.83731 -2.09477,-5.41873 -5.97792,-14.06972 -8.7856,-19.45868 -46.39742,-3.78209 -48.12427,-8.06505 -29.46148,27.80116 2.70879,6.78914 10.08813,17.48136 13.03021,24.31314 1.48786,3.45662 2.54989,7.51398 3.56805,11.7968 1.96049,8.24487 3.60205,15.97462 4.75892,25.97388 0.37821,3.27183 0.82979,6.75425 1.45061,10.18935 0.20184,1.12004 0.73357,2.47129 0.65802,3.11687 -0.19929,1.70666 -2.24729,2.1235 -2.24508,3.95674 0.001,1.63766 1.49148,3.37905 1.84085,5.39688 0.40275,2.32245 0.32455,4.893 0.21872,7.31938 -0.64519,14.58413 3.35552,27.38426 9.8022,36.45663 1.01868,1.43178 2.25734,3.04178 3.87593,3.63944 0.61692,2.03952 2.11942,3.57919 3.94021,4.42882 3.04077,1.41853 6.82005,2.09666 10.39002,3.29214 6.65785,2.22769 13.70464,4.64852 20.23766,7.22388 3.33886,1.31522 6.36528,3.21665 9.65132,3.94825 1.30678,0.58671 2.64696,3.86807 4.61343,2.98342 0.27915,-0.12581 0.24715,-0.7172 0.75448,-0.45975 4.05555,4.21543 3.73769,12.52517 2.96603,18.7867 -0.75926,6.15813 -2.82092,12.28614 -4.51844,17.03685 -1.84633,-0.70097 -2.54116,-1.77158 -4.87475,-1.37492 -4.61895,0.78325 -5.98748,8.89622 -7.62159,13.13181 -0.67193,1.74034 -1.55848,3.57294 -1.12955,5.44963 0.43426,1.89932 2.27102,2.55092 3.62859,3.06612 -1.11368,8.85926 -2.96632,15.19852 -1.46079,25.1073 0.77618,5.11197 3.12827,9.52463 5.6699,13.20687 4.93064,7.14347 12.13313,12.65411 21.44035,14.45963 4.5375,0.8794 10.57902,0.83569 15.96536,-1.14294 4.66017,-1.71095 7.81002,-4.29458 11.07243,-7.47372 3.04257,-2.965 6.06474,-6.41197 7.86991,-10.17823 2.03177,-4.23487 2.99234,-8.71396 4.24254,-13.24546 0.90278,-3.27906 1.89592,-6.68912 2.48734,-10.52105 0.19792,-1.28807 -10e-4,-3.8494 0.80062,-4.62722 0.5075,-0.49319 1.1688,-0.88791 1.41002,-2.10236 0.62344,-3.12814 -0.99173,-7.5796 -0.992,-11.81343 6.1e-4,-2.09539 1.12118,-4.08413 0.27462,-6.17061 -0.58349,-1.43922 -1.29456,-1.25508 -2.74083,-1.95049 -0.0164,-5.3815 -3.24635,-9.45251 -3.58721,-14.37223 -0.21605,-3.13893 0.63526,-6.5963 0.9625,-9.79791 0.32666,-3.19655 0.77976,-6.3455 0.97908,-9.6006 0.99128,-0.56393 2.00517,-1.10967 2.39364,-2.18396 2.90241,-0.58291 5.88796,0.70881 7.64584,-1.03943 0.77745,0.86899 1.1088,2.43677 1.85662,3.21592 0.72704,0.75883 1.91971,1.36215 2.95568,2.13115 4.63332,3.44237 9.56447,7.24106 13.4956,11.95365 1.64588,1.97319 3.0341,4.248 4.8123,5.34706"
       style="fill:#231f20;fill-opacity:1;fill-rule:evenodd;stroke:none;stroke-width:0.1"
       id="path16"
       sodipodi:nodetypes="ccccccccscsscccccccsscccsccccccccccccccccccccccccccccccccccccccccccccccsccccccc" /><path
       d="m 447.87864,859.07959 c 0.79936,0.27627 0.89918,1.24508 1.26416,1.86431 0.36307,0.61671 0.86675,1.26455 1.26447,1.86515 0.86459,1.30768 1.42954,2.68173 2.21804,4.04499 1.4016,2.42388 3.60586,4.3207 5.29776,6.3325 1.67181,1.98703 3.40906,4.09746 5.36187,6.51994 1.54379,1.91552 3.26217,5.18546 6.28257,4.326 1.84133,-0.52463 3.16958,-2.58662 2.96778,-4.14731 -0.24445,-1.87262 -1.73519,-3.40253 -2.91237,-4.85163 -1.10402,-1.35887 -2.52838,-2.63464 -3.40424,-3.84855 -0.94555,-1.30954 -1.64175,-2.92832 -2.71957,-4.29089 -0.96667,-1.21991 -2.23554,-2.26032 -3.08943,-3.53667 -1.10281,-1.64898 -1.93602,-3.6066 -3.04049,-5.22641 -0.93846,-1.37535 -3.23899,-3.0005 -2.03579,-4.73287 0.64669,-0.33104 0.95644,0.75411 1.19591,1.05263 4.41576,5.50858 8.78191,9.50286 13.30645,15.70666 1.48305,2.03458 3.34755,4.69332 5.59269,4.14436 1.83741,-0.44941 3.08508,-2.76266 2.83972,-4.52191 -0.35387,-2.5433 -2.85664,-4.71653 -4.29922,-6.46588 -3.17179,-3.84241 -5.90056,-7.48334 -9.33654,-11.42467 -2.24015,-2.57042 -6.35363,-5.4209 -3.62444,-8.15813 2.16155,0.25748 3.84853,1.6707 5.70697,2.64266 3.71051,1.94088 6.40537,4.17521 10.30076,6.91944 1.53389,1.07985 3.9334,2.9141 5.88982,1.95349 1.28127,-0.62945 1.54905,-2.31892 1.34857,-3.38435 -0.39077,-2.07311 -1.74953,-2.715 -2.40087,-3.35572 -3.86271,-3.79534 -7.14182,-6.0539 -11.62899,-8.97109 -2.20001,-1.43004 -4.56035,-2.4048 -6.09068,-3.76482 -1.85672,-1.65005 -3.0339,-4.00484 -4.73218,-5.89926 -3.22845,-3.60326 -6.45798,-7.42914 -9.95661,-10.79638 -1.67487,-1.61275 -3.74248,-2.68341 -5.40629,-4.2081 -1.58639,-1.45288 -2.86434,-3.4224 -4.6002,-4.90129 -1.81798,-1.54913 -3.21174,-3.03825 -4.59893,-4.90068 -2.83344,-3.80488 -4.87996,-8.53516 -7.3535,-13.56549 -6.93935,-14.11287 -13.48205,-29.07472 -21.50428,-41.51435 -5.38546,-8.35068 -10.67187,-14.56035 -15.87336,-24.43453 -2.51714,-4.78072 -4.61084,-10.25476 -7.41209,-13.1279 -1.04079,-1.06885 -2.70132,-1.39403 -3.51795,-2.34815 -1.02021,-1.19102 -1.54775,-3.12324 -2.47455,-4.79213 -2.24362,-4.04568 -5.53354,-8.32014 -8.09138,-12.06083 -7.46782,-10.92335 -13.83314,-22.24167 -21.37749,-33.20332 -2.72458,-3.95947 -8.68523,-11.81332 -11.86797,-15.27368 -0.99501,-1.08018 -2.75401,-2.11681 -3.46352,-3.40981 -1.38592,-2.52331 -1.95093,-3.73678 -3.54171,-5.47139 -1.24665,-1.35873 -2.6205,-2.35692 -4.27958,-3.96672 -2.51074,-2.43461 -4.62469,-5.45196 -7.00073,-8.25606 v 0 c 0,0 -4.80359,7.3312 -18.63008,47.50896 2.07639,1.5136 3.97623,3.38244 5.96834,4.01597 1.44814,0.4613 3.04949,0.0416 4.37877,0.5911 1.58181,0.65442 5.32987,6.15135 7.17638,6.43627 8.79952,12.36083 16.81281,24.42505 26.57778,34.97618 1.27174,1.37342 2.42971,2.59021 3.77771,3.71986 1.23339,1.03251 2.6603,1.77792 4.0832,2.78044 5.73453,4.03991 8.56912,10.57429 12.88857,18.1471 1.89879,3.33079 3.79277,6.6939 5.95159,10.07743 8.03925,12.60072 17.07984,24.19528 25.96131,36.23007 6.31583,8.55574 12.56019,18.33965 18.4123,29.41494 2.12008,4.01512 4.88874,7.7047 5.52732,11.89347 0.43434,2.84336 0.49475,5.87912 0.75673,8.9294 0.24734,2.87457 0.10737,5.71357 0.25519,8.68351 0.14433,2.92246 0.91574,6.13357 1.50878,9.29899 0.57956,3.09817 0.57047,6.38798 1.25768,9.17668 0.57685,2.34233 1.58363,4.45521 1.61244,6.54856 0.0257,1.76878 -1.19312,4.80016 -0.0146,6.06168 1.15466,1.23804 3.22907,0.4061 4.55519,-0.72265 2.31924,-1.97348 2.81643,-5.3627 2.81045,-8.27005 -0.003,-1.75547 -0.70127,-3.25632 -0.91485,-5.11726 -0.15684,-1.38268 0.11935,-3.34137 0.14907,-5.0626 0.0306,-1.76484 -0.0652,-3.64914 0.46327,-4.75251 1.74709,0.10543 2.53976,1.97239 3.39976,3.22339 2.9245,4.25052 5.66773,8.70021 8.22882,13.68364 1.64512,3.20088 3.78346,5.69312 5.81477,8.45333 2.38029,3.23706 5.86388,9.82108 9.8774,8.73516 1.46752,-0.39687 2.56382,-1.91347 2.66232,-3.2079 0.27765,-3.6418 -3.65809,-6.16405 -5.18963,-8.45793 -0.83439,-1.25029 -1.58701,-3.08968 -2.40986,-4.60607 -1.60047,-2.94981 -2.80088,-6.55006 -4.82034,-9.21077 -0.94697,-1.24877 -2.82668,-2.31076 -1.27869,-3.73948"
       style="fill:#231f20;fill-opacity:1;fill-rule:evenodd;stroke:none;stroke-width:0.0999997"
       id="path16-9"
       sodipodi:nodetypes="ccccccsccccccccccccccccccccsccccccccccccccccccccccccccccccccccccccccccccccccccc" /><text
       xml:space="preserve"
       style="font-weight:bold;font-size:12px;line-height:1.25;font-family:sans-serif;-inkscape-font-specification:'sans-serif, Bold';stroke-width:0.75"
       x="438.23926"
       y="-776.80817"
       id="text1381"
       transform="scale(1,-1)"><tspan
         sodipodi:role="line"
         id="tspan1379"
         x="438.23926"
         y="-776.80817"
         style="font-style:normal;font-variant:normal;font-weight:normal;font-stretch:normal;font-size:12px;font-family:Arial;-inkscape-font-specification:'Arial, Normal';font-variant-ligatures:normal;font-variant-caps:normal;font-variant-numeric:normal;font-variant-east-asian:normal;stroke-width:0.75">Slash</tspan></text><text
       xml:space="preserve"
       style="font-weight:bold;font-size:12px;line-height:1.25;font-family:sans-serif;-inkscape-font-specification:'sans-serif, Bold';stroke-width:0.75"
       x="85.986443"
       y="-782.573"
       id="text1381-1"
       transform="scale(1,-1)"><tspan
         sodipodi:role="line"
         id="tspan1379-9"
         x="85.986443"
         y="-782.573"
         style="font-style:normal;font-variant:normal;font-weight:normal;font-stretch:normal;font-size:12px;font-family:Arial;-inkscape-font-specification:'Arial, Normal';font-variant-ligatures:normal;font-variant-caps:normal;font-variant-numeric:normal;font-variant-east-asian:normal;stroke-width:0.75">Backslash</tspan></text><g
       id="g6385"
       transform="matrix(1.467053,-0.27434212,0.27434212,1.467053,-402.33086,-332.38178)"
       style="fill:#666666;fill-opacity:1"><path
         d="m 376.59838,844.9204 c -0.5342,0.39366 -1.07871,0.77174 -1.62558,1.14592 -0.5476,0.37328 -1.09879,0.74056 -1.65356,1.10215 -1.10964,0.72257 -2.23116,1.42536 -3.36326,2.10865 -2.26361,1.3675 -4.56679,2.66213 -6.90019,3.88991 -4.66827,2.45285 -9.46073,4.63556 -14.34713,6.51125 -4.88501,1.87689 -9.86717,3.44047 -14.9033,4.63886 -5.03673,1.193 -10.12862,2.01961 -15.21392,2.39349 -2.5419,0.19249 -5.0814,0.26295 -7.60741,0.22607 -1.26285,-0.0228 -2.52211,-0.0738 -3.77687,-0.15231 l -0.93994,-0.0657 c -0.31302,-0.0243 -0.62573,-0.0531 -0.93815,-0.0789 -0.31242,-0.0246 -0.62423,-0.0582 -0.93575,-0.0896 -0.31151,-0.0318 -0.62303,-0.0615 -0.93365,-0.10014 -4.97316,-0.56637 -9.84199,-1.63104 -14.51293,-3.18622 l -0.43774,-0.14602 -0.21887,-0.0728 -0.21737,-0.0771 -0.86919,-0.30762 c -0.0726,-0.0249 -0.14481,-0.0513 -0.21647,-0.0788 l -0.21587,-0.0807 -0.43145,-0.16161 -0.43084,-0.1613 -0.42815,-0.1694 c -1.14413,-0.44284 -2.27026,-0.92915 -3.3862,-1.43136 l -0.83381,-0.38377 c -0.27704,-0.12982 -0.55138,-0.26564 -0.82691,-0.39787 l -0.41286,-0.19908 -0.40956,-0.20658 -0.81791,-0.41405 -0.81013,-0.42905 c -0.13462,-0.072 -0.27014,-0.14152 -0.40416,-0.21497 l -0.40086,-0.22217 c -0.26684,-0.14871 -0.53489,-0.29413 -0.80053,-0.44464 l -0.79303,-0.45843 c -0.13162,-0.077 -0.26504,-0.15051 -0.39517,-0.23056 l -0.39217,-0.23656 -0.39186,-0.23626 c -0.13043,-0.0795 -0.26235,-0.15531 -0.39097,-0.23806 l -0.77505,-0.48691 -0.19398,-0.12143 c -0.0648,-0.0402 -0.12892,-0.0813 -0.19249,-0.12353 l -0.38317,-0.25095 c -0.25485,-0.1676 -0.5115,-0.33221 -0.76485,-0.50191 l -0.75705,-0.51539 c -0.12563,-0.0861 -0.25245,-0.1703 -0.37748,-0.25785 l -0.37388,-0.26474 -0.74686,-0.52859 c -1.97733,-1.43285 -3.8917,-2.95296 -5.74221,-4.55161 l -8.89095,11.65202 c 2.368,1.60945 4.80556,3.12205 7.30639,4.52373 l 0.94354,0.51629 0.47192,0.25725 c 0.15741,0.0851 0.31751,0.167 0.47582,0.25065 l 0.95314,0.49771 c 0.31871,0.164 0.64102,0.32201 0.96123,0.48301 l 0.48092,0.23986 c 0.0797,0.0405 0.1604,0.0797 0.24165,0.11783 l 0.24256,0.11603 0.97083,0.46263 c 0.1607,0.0783 0.32561,0.14991 0.48841,0.22487 l 0.48931,0.22247 0.48931,0.22217 c 0.16251,0.0752 0.32861,0.14361 0.49261,0.21587 l 0.98672,0.42635 c 0.3298,0.13971 0.66261,0.27373 0.99361,0.41045 l 0.49681,0.20358 c 0.1658,0.0675 0.3337,0.13103 0.5004,0.19639 l 1.00081,0.38917 1.00801,0.37178 0.504,0.18439 0.507,0.1763 c 0.3385,0.11663 0.6752,0.23656 1.0146,0.34959 l 1.0197,0.3331 c 1.36299,0.43325 2.73199,0.8428 4.11357,1.20169 l 0.5169,0.13762 0.51959,0.12893 0.51899,0.12832 0.25935,0.0642 c 0.0864,0.0216 0.173,0.0423 0.25995,0.0618 l 1.04218,0.23776 0.26025,0.0594 0.26144,0.0549 0.52259,0.10943 0.5223,0.10914 c 0.17389,0.0372 0.34929,0.0681 0.52379,0.10224 l 1.04758,0.19878 c 0.70068,0.12023 1.39927,0.24586 2.10146,0.349 0.70038,0.11303 1.40407,0.20268 2.10565,0.29832 l 1.05478,0.12533 0.26325,0.0312 c 0.0878,0.0102 0.17599,0.0183 0.26414,0.0276 l 0.52769,0.0537 0.52739,0.0531 c 0.17569,0.0186 0.35199,0.0309 0.52799,0.0465 0.35199,0.0291 0.70338,0.0606 1.05537,0.0872 l 1.05568,0.0708 c 0.0879,0.006 0.1757,0.0123 0.26384,0.0171 l 0.26385,0.0135 0.52769,0.0267 c 1.40707,0.0669 2.81294,0.10494 4.21611,0.0983 0.35049,0.003 0.70098,-0.004 1.05148,-0.009 0.35019,-0.005 0.70038,-0.008 1.05028,-0.0213 0.34989,-0.0111 0.69948,-0.0198 1.04908,-0.0333 l 1.04728,-0.0477 c 1.39508,-0.0735 2.78565,-0.17839 4.16994,-0.31361 2.76856,-0.27974 5.51314,-0.6767 8.22264,-1.1996 5.4217,-1.03618 10.70398,-2.5392 15.81807,-4.393 5.11318,-1.85951 10.06086,-4.0692 14.83104,-6.56403 4.77096,-2.49393 9.36812,-5.26789 13.78166,-8.27991 2.20589,-1.50751 4.36654,-3.07379 6.47333,-4.70422 1.05367,-0.81462 2.09319,-1.64633 3.1169,-2.49543 0.5118,-0.42455 1.01904,-0.8542 1.52151,-1.28924 0.50164,-0.43564 1.00015,-0.87488 1.48581,-1.32731"
         style="fill:#666666;fill-opacity:1;fill-rule:nonzero;stroke:none;stroke-width:0.00299823"
         id="path2498" /><path
         d="m 255.90325,839.88007 -16.50526,-2.95146 5.69634,15.76979 5.69634,15.76979 10.80892,-12.81833 10.80892,-12.81803 -16.50526,-2.95176"
         style="fill:#666666;fill-opacity:1;fill-rule:nonzero;stroke:none;stroke-width:0.00299823"
         id="path2500" /></g></g></svg>
